PathFileType	4	(X/Y/Z)	C:/Users/beibeiliu/ov580/test_trc/User1\sequence.8_training_dense_left.trc
DataRate	CameraRate	NumFrames	NumMarkers	Units	OrigDataRate	OrigDataStartFrame	OrigNumFrames
120	120	10	19	mm	120	109	289
Frame#	Time	ThumbCMC			ThumbMCP			ThumbIP			ThumbTip			IndexMCP			IndexPIP			IndexTip			MiddleMCP			MiddlePIP			MiddleTip			RingMCP			RingPIP			RingTip			PinkyMCP			PinkyPIP			PinkyTip			BackHand1			BackHand2			BackHand3	
		X0	Y0	Z0	X1	Y1	Z1	X2	Y2	Z2	X3	Y3	Z3	X4	Y4	Z4	X5	Y5	Z5	X6	Y6	Z6	X7	Y7	Z7	X8	Y8	Z8	X9	Y9	Z9	X10	Y10	Z10	X11	Y11	Z11	X12	Y12	Z12	X13	Y13	Z13	X14	Y14	Z14	X15	Y15	Z15	X16	Y16	Z16	X17	Y17	Z17	X18	Y18	Z18	
108	0.9	-184.868	141.356	34.5037	-171.493	157.934	11.635	-164.252	179.346	-2.11041	-153.884	194.101	-10.1464	-187.269	168.941	-43.8928	-165.655	144.045	-51.4777	-168.364	132.076	-15.5693	-197.763	146.813	-56.5032	-171.823	124.185	-48.2136	-180.225	118.794	-11.8829	-203.911	120.21	-56.2461	-181.906	103.07	-42.8664	-194.292	105.595	-9.6258	-214.89	101.835	-50.2804	-192.165	90.8973	-33.3831	-201.576	99.8993	-5.20014	-243.156	124.648	-4.25435	-242.322	109.679	29.2561	-223.368	142.974	21.8807	
109	0.908333	-187.277	143.622	30.8214	-171.242	162.557	13.2697	-168.527	179.555	-5.2881	-160.601	199.26	-13.6877	-188.463	163.078	-48.476	-166.052	144.041	-52.9817	-167.044	131.43	-19.9432	-201.241	142.597	-55.6969	-169.492	123.275	-50.702	-179.136	115.219	-15.6517	-202.872	117.596	-56.3866	-177.506	102.772	-39.1456	-190.54	102.233	-11.3847	-210.71	96.0489	-51.7442	-187.456	92.9723	-33.7726	-199.8	95.7225	-4.22473	-241.316	116.665	-3.62355	-240.559	105.988	31.1886	-224.27	141.203	23.751	
110	0.916667	-185.656	144.827	33.4808	-174.264	165.455	9.63617	-173.458	181.975	-8.34955	-168.587	198.881	-17.5418	-189.67	160.896	-49.9809	-165.114	138.651	-51.4804	-166.711	130.501	-19.7166	-197.254	138.084	-59.0617	-168.275	119.963	-51.2173	-178.744	117.716	-11.3253	-200.409	114.866	-56.7397	-173.77	101.862	-41.7723	-188.279	101.078	-10.7214	-207.206	94.1407	-50.0457	-183.563	90.0149	-34.9726	-195.936	95.6842	-7.63167	-239.283	111.123	-5.19478	-238.046	101.024	30.0313	-224.428	140.076	21.6984	
111	0.925	-187.612	146.322	30.0817	-175.451	161.791	10.3774	-176.498	182.134	-7.54043	-170.924	200.553	-15.2635	-189.437	158.884	-52.4462	-163.616	139.535	-54.5445	-168.921	132.736	-18.066	-195.16	136.196	-61.3586	-166.769	119.642	-52.9649	-177.362	116.596	-13.2777	-197.116	108.96	-57.4573	-169.918	99.4299	-41.936	-184.449	101.331	-11.5757	-205.945	87.9188	-50.4922	-177.085	86.4219	-36.9775	-193.347	92.7768	-3.46408	-235.834	111.151	-10.4536	-233.964	101.22	28.416	-224.37	134.578	18.7112	
112	0.933333	-188.116	149.597	30.7308	-179.388	166.651	7.36798	-181.301	184.132	-9.94769	-176.863	204.456	-17.5632	-190.095	157.928	-54.0783	-159.384	142.907	-52.3246	-168.647	137	-16.4219	-196.993	129.354	-61.6693	-162.848	123.594	-53.6175	-172.165	119.305	-15.229	-191.871	107.604	-58.667	-165.666	101.508	-41.9351	-180.608	104.222	-11.8341	-196.08	87.3893	-50.9542	-173.933	89.4448	-37.2074	-190.038	94.4744	-6.96824	-233.157	104.348	-8.54226	-231.619	99.4372	24.9422	-225.725	134.987	14.6524	
113	0.941667	-191.777	152.326	25.9353	-183.184	167.341	7.92449	-186.187	187.634	-11.1816	-185.31	206.95	-19.5862	-190.034	155.766	-55.7271	-157.984	142.548	-51.9606	-167.438	139.723	-17.058	-188.807	126.871	-65.2386	-159.21	124.958	-52.886	-176.163	120.864	-12.9182	-186.083	107.857	-60.0939	-161.454	105.496	-41.654	-180.709	104.271	-10.4172	-192.445	85.2054	-50.7718	-166.595	88.2858	-32.9116	-186.839	92.9504	-5.35465	-230.101	105.721	-13.1207	-230.25	93.6572	23.6094	-224.135	133.141	13.9782	
114	0.95	-194.155	148.282	27.402	-189.654	169.224	2.77349	-194.415	187.68	-15.0111	-192.686	204.182	-22.4912	-188.461	156.127	-58.616	-156.505	146.256	-52.0227	-165.655	138.571	-20.0742	-187.17	131.481	-63.9874	-155.398	125.154	-47.4997	-168.715	124.724	-14.9504	-179.265	105.557	-61.2148	-156.583	107.054	-41.6023	-174.377	106.776	-12.0226	-187.31	86.7644	-50.8484	-162.18	93.5605	-35.3151	-179.939	93.8831	-7.18176	-225.073	98.3858	-12.8614	-227.049	90.6111	17.4867	-226.128	127.628	10.2969	
115	0.958333	-199.041	148.196	22.765	-192.528	167.088	5.20126	-199.923	189.313	-15.0955	-201.345	205.111	-22.7809	-187.103	156.855	-58.8318	-153.486	149.917	-49.6181	-163.544	145.091	-18.586	-181.619	128.425	-66.1247	-151.73	126.809	-46.0394	-168.225	127.109	-15.3	-177.837	109.445	-59.7774	-151.277	112.075	-35.0228	-173.605	110.374	-12.3336	-175.353	87.1947	-52.8443	-154.809	93.517	-33.0707	-178.944	98.5825	-8.6714	-221.337	95.8997	-19.0092	-225.644	90.7181	15.8754	-225.327	130.062	5.46706	
116	0.966667	-202.989	148.421	24.2206	-200.497	170.029	0.632627	-205.329	187.539	-13.7547	-210.137	204.18	-26.2256	-185.005	155.258	-58.369	-153.717	150.966	-50.2189	-166.924	147.024	-16.1148	-178.946	129.266	-65.7691	-148.289	134.753	-45.6944	-169.588	126.476	-14.0145	-170.989	108.742	-59.1528	-147.838	116.6	-33.6504	-170.514	110.032	-10.586	-168.653	90.9594	-50.7767	-148.903	97.6264	-31.0752	-173.433	98.6293	-5.85993	-219.937	96.9067	-21.6681	-224.705	85.1071	12.4544	-227.851	125.808	4.01616	
117	0.975	-206.769	149.768	22.9053	-206.356	172.128	1.55471	-212.197	185.342	-14.5354	-217.524	202.008	-24.9412	-181.305	155.16	-59.754	-153.088	156.453	-44.4735	-170.579	149.134	-14.2189	-175.95	130.295	-65.2254	-147.196	134.471	-45.4505	-167.265	127.915	-13.6588	-166.576	113.848	-57.1009	-145.272	120.765	-35.1899	-169.912	112.963	-9.798	-164.925	88.6729	-48.9566	-146.774	101.505	-27.2392	-173.659	102.402	-5.19457	-215.068	94.1681	-25.0195	-221.625	87.9411	14.9559	-226.46	120.59	-1.65399	
